<svg width="60" height="60" viewBox="0 0 60 60" fill="none" xmlns="http://www.w3.org/2000/svg">
<path d="M10.5211 33.75H20.1727C22.8105 36.0563 26.2219 37.5 30 37.5C33.7781 37.5 37.1895 36.0563 39.8273 33.75H49.4789C49.7986 33.7496 50.1129 33.6675 50.3919 33.5115C50.6709 33.3554 50.9054 33.1306 51.0731 32.8585C51.2408 32.5863 51.3361 32.2757 51.35 31.9563C51.3638 31.6369 51.2958 31.3193 51.1523 31.0336C49.3676 27.5355 47.4867 23.741 46.2129 19.8375C45.3258 17.1199 45 14.2488 45 11.3906V5.625L30 0L15 5.625V11.3906C15 14.2488 14.6777 17.1199 13.7895 19.8375C12.5133 23.741 10.6324 27.5391 8.84766 31.0336C8.70419 31.3193 8.63616 31.6369 8.65003 31.9563C8.66389 32.2757 8.75919 32.5863 8.92688 32.8585C9.09456 33.1306 9.32905 33.3554 9.60808 33.5115C9.88711 33.6675 10.2014 33.7496 10.5211 33.75V33.75ZM25.3125 8.39883C25.3125 8.24343 25.3742 8.09439 25.4841 7.98451C25.594 7.87462 25.743 7.81289 25.8984 7.81289H28.4379V5.27344C28.4379 5.11804 28.4996 4.969 28.6095 4.85912C28.7194 4.74923 28.8684 4.6875 29.0238 4.6875H30.9762C31.1316 4.6875 31.2806 4.74923 31.3905 4.85912C31.5004 4.969 31.5621 5.11804 31.5621 5.27344V7.81289H34.1016C34.257 7.81289 34.406 7.87462 34.5159 7.98451C34.6258 8.09439 34.6875 8.24343 34.6875 8.39883V10.3512C34.6875 10.5066 34.6258 10.6556 34.5159 10.7655C34.406 10.8754 34.257 10.9371 34.1016 10.9371H31.5621V13.4766C31.5621 13.632 31.5004 13.781 31.3905 13.8909C31.2806 14.0008 31.1316 14.0625 30.9762 14.0625H29.0238C28.8684 14.0625 28.7194 14.0008 28.6095 13.8909C28.4996 13.781 28.4379 13.632 28.4379 13.4766V10.9371H25.8984C25.743 10.9371 25.594 10.8754 25.4841 10.7655C25.3742 10.6556 25.3125 10.5066 25.3125 10.3512V8.39883ZM20.625 18.75H39.375V22.5C39.375 24.9864 38.3873 27.371 36.6291 29.1291C34.871 30.8873 32.4864 31.875 30 31.875C27.5136 31.875 25.129 30.8873 23.3709 29.1291C21.6127 27.371 20.625 24.9864 20.625 22.5V18.75ZM41.1809 37.5L30 48.6785L18.8191 37.5C10.4414 37.8633 3.75 44.7188 3.75 53.1785C3.75 54.9877 4.46869 56.7228 5.74797 58.002C7.02724 59.2813 8.76231 60 10.5715 60H49.4285C51.2377 60 52.9728 59.2813 54.252 58.002C55.5313 56.7228 56.25 54.9877 56.25 53.1785C56.25 44.7188 49.5586 37.8633 41.1809 37.5V37.5Z" fill="black"/>
</svg>
