<svg width="45" height="45" viewBox="0 0 45 45" fill="none" xmlns="http://www.w3.org/2000/svg">
<g clip-path="url(#clip0_106_13)">
<path d="M22.7322 25.6573C29.5642 25.6573 35.1072 20.1144 35.1072 13.2823C35.1072 6.45032 29.5642 0.907349 22.7322 0.907349C15.9001 0.907349 10.3572 6.45032 10.3572 13.2823C10.3572 20.1144 15.9001 25.6573 22.7322 25.6573ZM33.7322 28.4073H28.997C27.0892 29.2839 24.9666 29.7823 22.7322 29.7823C20.4978 29.7823 18.3837 29.2839 16.4673 28.4073H11.7322C5.6564 28.4073 0.732178 33.3316 0.732178 39.4073V40.7823C0.732178 43.0597 2.57983 44.9073 4.85718 44.9073H40.6072C42.8845 44.9073 44.7322 43.0597 44.7322 40.7823V39.4073C44.7322 33.3316 39.808 28.4073 33.7322 28.4073Z" fill="black"/>
</g>
<defs>
<clipPath id="clip0_106_13">
<rect width="44" height="44" fill="white" transform="translate(0.732178 0.907349)"/>
</clipPath>
</defs>
</svg>
